<svg xmlns="http://www.w3.org/2000/svg" viewBox="0 0 209.59 209.59"><title>lead</title><rect x="31.19" y="31.19" width="147.2" height="147.2" transform="translate(-43.41 104.79) rotate(-45)" style="fill:#fff;stroke:#000;stroke-miterlimit:10"/><path d="M59,124.45V56.07h90.57V146.6H59V129.85A39.7,39.7,0,0,0,63,132c7.6,3.12,15.46,3.59,23.8,2.17a11,11,0,0,1-1.89-1c-.89-.76-2.15-1.49-2.44-2.48-1-3.45-.94-6.89,1.49-9.89.25-.3.5-.6.79-.93a24.5,24.5,0,0,1-5.43-12.5A24.89,24.89,0,0,1,81.34,94,8.14,8.14,0,0,0,76,93c-3.23.47-5.8,1.81-6.49,5.39a27.49,27.49,0,0,0-.24,3.85c0,.54.21,1.29-.06,1.59-1.13,1.25-.53,2.48.2,3.38a17.15,17.15,0,0,1,2.35,4.92,10.94,10.94,0,0,0,1.35,2.48,1.42,1.42,0,0,1-.13,2,5,5,0,0,1-1.85,1.18A36.77,36.77,0,0,1,67,119C63.57,119.76,60.72,121.24,59,124.45Zm22.68-20.25a21.9,21.9,0,1,0,22-21.83A21.73,21.73,0,0,0,81.73,104.21Zm62.35,28c.4-.18.71-.35,1-.47,1.88-.72,3.39-1.72,3.2-4.07a17,17,0,0,1-.08-1.9,5.51,5.51,0,0,0-2.84-4.93c-2-1.34-4.29-1.8-6.56-2.39a17.51,17.51,0,0,1-3.64-1.27c-1.35-.7-1.32-1.46-.59-2.78a20.12,20.12,0,0,0,1.56-3.85,5.55,5.55,0,0,1,1.21-2.62,3.62,3.62,0,0,0,.88-2.16,21,21,0,0,0-.28-3.12c-.09-1.09,0-2.19-.2-3.27a5.57,5.57,0,0,0-4.37-4.92,10.53,10.53,0,0,1-1.22-.55,9.21,9.21,0,0,0-6.61-.6,25.58,25.58,0,0,1,2.54,11.5,28.09,28.09,0,0,1-3,11.44c2.79,0,4.51,1.47,6.16,3.16C135.47,123.72,139.74,127.92,144.07,132.26Zm1.71,7.1a3.54,3.54,0,0,0-1.22-3c-5.3-5.3-10.57-10.63-15.92-15.88a7.89,7.89,0,0,0-2.7-1.44c-.64-.25-1.43.15-2-.54-.16-.18-1,0-1.34.28-1.32,1.21-2.59,2.5-3.81,3.81a1.21,1.21,0,0,0-.09,1.74,2,2,0,0,1,.36,1.07,4.69,4.69,0,0,0,1.38,3.07q8,8.07,16.11,16.11a4.06,4.06,0,0,0,6-.08c.71-.7,1.4-1.43,2.12-2.12A3.56,3.56,0,0,0,145.79,139.36Zm-23.5-51.19c.46-1.44.88-2.68,1.23-3.94a4.11,4.11,0,0,1,1-2.06,3.56,3.56,0,0,0,1-3.44,16,16,0,0,1-.33-4c-.14-2.39-1.43-5.48-4.55-6.11a2.53,2.53,0,0,1-.83-.32,9.15,9.15,0,0,0-6.06-1.14c-2.75.31-5.12,1.38-6.17,4.22a9.45,9.45,0,0,0-.49,5.13,2.47,2.47,0,0,1-.18,1.64c-.78,1.21-.67,1.61.81,1.9A24.11,24.11,0,0,1,119,85.29C120.06,86.14,121,87.05,122.29,88.17Zm-37-.07c.75-.74,1.26-1.28,1.81-1.77.78-.69,1.56-1.39,2.41-2a23,23,0,0,1,10-4.18c1-.16,1.33-.78,1.07-1.38-.61-1.42-.25-2.85-.38-4.26-.28-3.08-1.88-5.2-4.49-5.85a2.9,2.9,0,0,1-.84-.31A9,9,0,0,0,89,67.18c-3.29.32-5.48,1.51-6.53,4.37a8.7,8.7,0,0,0-.46,5,2.07,2.07,0,0,1-.19,1.63,1.19,1.19,0,0,0-.32,1.57c.44.93.92,1.84,1.39,2.76.26.51.56,1,.77,1.54C84.18,85.29,84.66,86.57,85.24,88.09ZM86.53,122c-2.06,1.23-2.1,4.48-1.94,6.72a2.76,2.76,0,0,0,1.77,2.35,38.06,38.06,0,0,0,15.08,3.83,41.4,41.4,0,0,0,11.43-.83,27.63,27.63,0,0,0,7.22-2.38c-2-1.71-3.51-3.54-3.8-6.22C105.44,130.93,95.56,129.68,86.53,122Z" style="fill:#fdfdfd"/><path d="M59,124.45c1.68-3.21,4.53-4.7,7.91-5.45a36.77,36.77,0,0,0,4.16-1.17A5,5,0,0,0,73,116.65a1.42,1.42,0,0,0,.13-2,10.94,10.94,0,0,1-1.35-2.48,17.15,17.15,0,0,0-2.35-4.92c-.72-.9-1.32-2.13-.2-3.38.27-.3,0-1.05.06-1.59a27.49,27.49,0,0,1,.24-3.85C70.19,94.83,72.77,93.5,76,93a8.14,8.14,0,0,1,5.35,1,24.89,24.89,0,0,0-2.06,13.32,24.5,24.5,0,0,0,5.43,12.5c-.29.34-.54.63-.79.93-2.43,3-2.51,6.44-1.49,9.89.29,1,1.55,1.72,2.44,2.48a11,11,0,0,0,1.89,1c-8.34,1.42-16.2.95-23.8-2.17A39.7,39.7,0,0,1,59,129.85Z" style="fill:#787878"/><path d="M81.73,104.21a21.9,21.9,0,0,1,43.8.06,21.9,21.9,0,1,1-43.8-.06Zm3,0a18.8,18.8,0,0,0,18.82,19,18.88,18.88,0,0,0,.21-37.76A18.83,18.83,0,0,0,84.75,104.18Z" style="fill:#383838"/><path d="M144.07,132.26c-4.33-4.33-8.61-8.54-12.8-12.82-1.65-1.69-3.37-3.12-6.16-3.16a28.09,28.09,0,0,0,3-11.44,25.58,25.58,0,0,0-2.54-11.5,9.21,9.21,0,0,1,6.61.6,10.53,10.53,0,0,0,1.22.55,5.57,5.57,0,0,1,4.37,4.92c.15,1.08.11,2.18.2,3.27a21,21,0,0,1,.28,3.12,3.62,3.62,0,0,1-.88,2.16,5.55,5.55,0,0,0-1.21,2.62,20.12,20.12,0,0,1-1.56,3.85c-.74,1.33-.77,2.08.59,2.78a17.51,17.51,0,0,0,3.64,1.27c2.26.59,4.56,1.05,6.56,2.39a5.51,5.51,0,0,1,2.84,4.93,17,17,0,0,0,.08,1.9c.19,2.35-1.32,3.35-3.2,4.07C144.78,131.91,144.47,132.07,144.07,132.26Z" style="fill:#787878"/><path d="M145.79,139.36a3.56,3.56,0,0,1-1.17,3c-.72.69-1.41,1.42-2.12,2.12a4.06,4.06,0,0,1-6,.08q-8.09-8-16.11-16.11a4.69,4.69,0,0,1-1.38-3.07,2,2,0,0,0-.36-1.07,1.21,1.21,0,0,1,.09-1.74c1.22-1.32,2.48-2.6,3.81-3.81.3-.28,1.18-.46,1.34-.28.62.7,1.41.29,2,.54a7.89,7.89,0,0,1,2.7,1.44c5.35,5.25,10.62,10.58,15.92,15.88A3.54,3.54,0,0,1,145.79,139.36Z" style="fill:#343434"/><path d="M122.29,88.17c-1.25-1.11-2.23-2-3.24-2.88a24.11,24.11,0,0,0-11.26-5.2c-1.48-.28-1.6-.68-.81-1.9a2.47,2.47,0,0,0,.18-1.64,9.45,9.45,0,0,1,.49-5.13c1.06-2.84,3.43-3.91,6.17-4.22a9.15,9.15,0,0,1,6.06,1.14,2.53,2.53,0,0,0,.83.32c3.12.63,4.41,3.72,4.55,6.11a16,16,0,0,0,.33,4,3.56,3.56,0,0,1-1,3.44,4.11,4.11,0,0,0-1,2.06C123.17,85.48,122.74,86.72,122.29,88.17Z" style="fill:#787878"/><path d="M85.24,88.09c-.59-1.52-1.06-2.81-1.57-4.08-.21-.53-.51-1-.77-1.54-.46-.92-.94-1.83-1.39-2.76a1.19,1.19,0,0,1,.32-1.57A2.07,2.07,0,0,0,82,76.53a8.7,8.7,0,0,1,.46-5c1.06-2.85,3.24-4.05,6.53-4.37a9,9,0,0,1,5.76,1.17,2.9,2.9,0,0,0,.84.31c2.62.65,4.22,2.77,4.49,5.85.13,1.42-.24,2.85.38,4.26.26.6-.1,1.22-1.07,1.38a23,23,0,0,0-10,4.18c-.84.62-1.62,1.31-2.41,2C86.5,86.81,86,87.35,85.24,88.09Z" style="fill:#787878"/><path d="M86.53,122c9,7.7,18.91,9,29.75,3.48.29,2.68,1.85,4.51,3.8,6.22a27.63,27.63,0,0,1-7.22,2.38,41.4,41.4,0,0,1-11.43.83,38.06,38.06,0,0,1-15.08-3.83,2.76,2.76,0,0,1-1.77-2.35C84.43,126.46,84.47,123.21,86.53,122Z" style="fill:#f6a23f"/><path d="M84.75,104.18a18.83,18.83,0,0,1,19-18.77,18.88,18.88,0,0,1-.21,37.76A18.8,18.8,0,0,1,84.75,104.18Zm27.15,14c-.66-.32-1.3-.57-1.88-.92-1.23-.74-1.24-1.53-.58-2.81.74-1.44,1.17-3,1.77-4.56a5.7,5.7,0,0,1,.85-1.64c.91-1,1.56-2.4,1.14-3.55a13.16,13.16,0,0,1-.42-4.23,5.88,5.88,0,0,0-4.38-5.9,5.88,5.88,0,0,1-1.11-.42,8.91,8.91,0,0,0-5.63-1.1c-3.36.43-5.75,1.7-6.57,4.92a23.75,23.75,0,0,0-.36,4.29c0,.54.22,1.29-.05,1.6a2.33,2.33,0,0,0,.1,3.26c1.31,1.6,1.81,3.5,2.53,5.33a11,11,0,0,0,1,1.86,2,2,0,0,1-.72,3.18,17.57,17.57,0,0,1-2,.84C100.13,121.42,107.75,121.18,111.91,118.15Z" style="fill:#fdfcfc"/><path d="M111.91,118.15c-4.16,3-11.77,3.27-16.37.14a17.57,17.57,0,0,0,2-.84,2,2,0,0,0,.72-3.18,11,11,0,0,1-1-1.86c-.72-1.83-1.22-3.73-2.53-5.33a2.33,2.33,0,0,1-.1-3.26c.27-.31,0-1.06.05-1.6a23.75,23.75,0,0,1,.36-4.29c.82-3.22,3.21-4.49,6.57-4.92a8.91,8.91,0,0,1,5.63,1.1,5.88,5.88,0,0,0,1.11.42,5.88,5.88,0,0,1,4.38,5.9,13.16,13.16,0,0,0,.42,4.23c.41,1.15-.24,2.5-1.14,3.55a5.7,5.7,0,0,0-.85,1.64c-.6,1.52-1,3.11-1.77,4.56-.66,1.27-.65,2.07.58,2.81C110.61,117.58,111.25,117.83,111.91,118.15Z" style="fill:#f6a13d"/></svg>