<svg xmlns="http://www.w3.org/2000/svg" viewBox="0 0 32.09 26.14"><title>twitter</title><path d="M32,3.11a.16.16,0,0,0-.19,0,12.89,12.89,0,0,1-3,.91A6.67,6.67,0,0,0,31.2.69.16.16,0,0,0,31,.5,12.87,12.87,0,0,1,27,2,6.68,6.68,0,0,0,15.6,8,18.41,18.41,0,0,1,2.49,1.25a.16.16,0,0,0-.14-.06.16.16,0,0,0-.12.08A6.68,6.68,0,0,0,3.84,9.85,6.39,6.39,0,0,1,1.51,9.1a.16.16,0,0,0-.24.14v.08A6.7,6.7,0,0,0,6,15.7a6.4,6.4,0,0,1-2.22,0,.16.16,0,0,0-.15.05.16.16,0,0,0,0,.15,6.67,6.67,0,0,0,5.8,4.61A12.83,12.83,0,0,1,1.71,23a13.09,13.09,0,0,1-1.54-.09A.16.16,0,0,0,0,23a.16.16,0,0,0,.06.19,18.64,18.64,0,0,0,10.08,3,18.52,18.52,0,0,0,18.7-18.7c0-.26,0-.51,0-.76A13.32,13.32,0,0,0,32.06,3.3a.16.16,0,0,0,0-.19" style="fill:#fff"/></svg>