<svg xmlns="http://www.w3.org/2000/svg" viewBox="0 0 128 128"><title>logo</title><path d="M64,128A64,64,0,1,0,0,64a64,64,0,0,0,64,64" style="fill:#fff"/><path d="M61.64,88.21a29.78,29.78,0,0,1,3.74.81,21.16,21.16,0,0,1,3.33,1.22V92.9H45.4V90.24A14.8,14.8,0,0,1,48.23,89a25.77,25.77,0,0,1,2.91-.77V48.59a18.54,18.54,0,0,1-3.08-.81,15.5,15.5,0,0,1-2.66-1.22V43.9h8.82q2.8,0,6.4-.28t6.62-.28a35.53,35.53,0,0,1,7.25.73,18.87,18.87,0,0,1,6.3,2.49,13.3,13.3,0,0,1,4.45,4.65,14.3,14.3,0,0,1,1.68,7.25,14.23,14.23,0,0,1-6,12.11,19,19,0,0,1-6.3,2.91,28.6,28.6,0,0,1-7.35.94H66.12c-.51,0-1.06,0-1.65,0l-1.68-.07a8.41,8.41,0,0,1-1.15-.1Zm3.78-40.32a17.92,17.92,0,0,0-2.21.1,11.67,11.67,0,0,0-1.57.31V69.59a7,7,0,0,0,1.89.25l2,0a10.67,10.67,0,0,0,3.64-.63,8.59,8.59,0,0,0,3.12-2,9.77,9.77,0,0,0,2.2-3.43,13.55,13.55,0,0,0,.84-5q0-5.6-2.73-8.26A9.89,9.89,0,0,0,65.42,47.89Z" style="fill:#666"/></svg>