<svg xmlns="http://www.w3.org/2000/svg" viewBox="0 0 209.59 209.59"><title>prijs</title><rect x="31.19" y="31.19" width="147.2" height="147.2" transform="translate(-43.41 104.79) rotate(-45)" style="fill:#fff;stroke:#000;stroke-miterlimit:10"/><path d="M118.94,69.53c-4.36,0-8.8-.06-13.24.06a3.83,3.83,0,0,0-2.2,1.24Q92.83,81.41,82.23,92.06c-5.3,5.3-10.63,10.58-15.9,15.92-3,3.07-3.07,6.47-.13,9.43Q78.73,130,91.32,142.49a7.9,7.9,0,0,0,2.76,1.78c2.7,1,4.86-.1,6.78-2,12-12,23.87-24,36-35.87a8.61,8.61,0,0,0,2.8-7c-.21-4.91-.4-9.83-.77-14.73-.27-3.61-.75-7.22-1.31-10.8A3.38,3.38,0,0,0,136,71.55a19,19,0,0,0-6.6-1.07c.4,2.91,0,5.57,2.29,7.86,2.42,2.48,2.06,6.5-.25,9.15a7.3,7.3,0,0,1-9.11,1.5,7.07,7.07,0,0,1-3.17-8.63A8,8,0,0,0,119.6,76C119.34,74,119.18,71.93,118.94,69.53Z" style="fill:#fefefd"/><path d="M150.09,90.47a43,43,0,0,1-2.63,5.42,2.63,2.63,0,0,1-3.56,1.28c-1.37-.68-1.81-2.14-1.1-3.76.8-1.82,1.74-3.58,2.43-5.44a43,43,0,0,0,2.89-16.48c-.16-5.24-3.26-9.45-7.84-10.66A10.46,10.46,0,0,0,127,71a80.58,80.58,0,0,0,1.18,9.2c.07.52.2,1,.28,1.55.3,1.9-.45,3.22-2,3.51a2.66,2.66,0,0,1-3.21-2.47c-.62-3.63-1.26-7.26-1.56-10.92a14.89,14.89,0,0,1,.71-5.68,16.2,16.2,0,0,1,14.36-11.12,16.38,16.38,0,0,1,5.61.87c3.22.92,5.56,3.09,7.79,5.43a11.27,11.27,0,0,1,1.87,3.7,22,22,0,0,1,1.09,4.37A34.79,34.79,0,0,1,153,79.7,48.26,48.26,0,0,1,150.09,90.47Z" style="fill:#fea604"/><path d="M118.94,69.53c.24,2.39.4,4.42.66,6.44a8,8,0,0,1-.42,4.39A7.07,7.07,0,0,0,122.35,89a7.3,7.3,0,0,0,9.11-1.5c2.31-2.66,2.67-6.68.25-9.15-2.24-2.29-1.89-5-2.29-7.86a19,19,0,0,1,6.6,1.07,3.38,3.38,0,0,1,1.53,2.31c.56,3.58,1,7.18,1.31,10.8.37,4.9.55,9.82.77,14.73a8.61,8.61,0,0,1-2.8,7c-12.08,11.86-24,23.88-36,35.87-1.92,1.93-4.08,3-6.78,2a7.9,7.9,0,0,1-2.76-1.78Q78.72,130,66.21,117.41c-2.95-3-2.91-6.36.13-9.43,5.27-5.33,10.6-10.61,15.9-15.92Q92.86,81.44,103.5,70.83a3.83,3.83,0,0,1,2.2-1.24C110.14,69.48,114.58,69.53,118.94,69.53ZM92.67,105.1l4-3.8,9.74,9.87,3-2.67c-1.64-1.6-3.2-3.11-4.74-4.63s-3-3-4.6-4.6c3-1.62,5.46-2.05,8.16-1.34,4.17,1.1,6.38,4.26,8,8l5-3.28A16.3,16.3,0,0,0,112.63,93c-6-2.8-11.63-1.4-17.11,1.73l-2.57-2.42L90.05,95l1.82,2-3.3,3.77-2.11-1.93-3,2.66,2.3,2.41c-.8,1.54-1.62,2.9-2.24,4.34-4.23,10,1.43,17.53,8.88,21.13.65.32,1.3.49,1.84-.3.91-1.33,1.87-2.63,2.82-4-8.2-4.51-10.64-10.64-6.49-16.49l9.13,9.3,2.88-3Z" style="fill:#fea502"/><path d="M92.67,105.1l10,9.89-2.88,3-9.13-9.3c-4.16,5.85-1.72,12,6.49,16.49-.95,1.32-1.91,2.62-2.82,4-.54.79-1.19.61-1.84.3-7.44-3.61-13.1-11.16-8.88-21.13.61-1.45,1.44-2.8,2.24-4.34l-2.3-2.41,3-2.66,2.11,1.93L91.87,97l-1.82-2,2.89-2.75,2.57,2.42c5.48-3.13,11.15-4.53,17.11-1.73a16.3,16.3,0,0,1,8.56,9.74l-5,3.28c-1.64-3.79-3.85-6.95-8-8-2.7-.71-5.15-.29-8.16,1.34,1.56,1.57,3.07,3.09,4.6,4.6s3.09,3,4.74,4.63l-3,2.67-9.74-9.87Z" style="fill:#fefcf9"/></svg>